/* XPM */
static char * closepr_xpm[] = {
"21 21 101 2",
"  	c None",
". 	c #4C4C4C",
"+ 	c #1F1F1F",
"@ 	c #1E1E1E",
"# 	c #202020",
"$ 	c #1D1D1D",
"% 	c #2D2D2D",
"& 	c #050505",
"* 	c #2D2C2C",
"= 	c #1D1C1C",
"- 	c #2A2A2A",
"; 	c #040404",
"> 	c #311919",
", 	c #240F0F",
"' 	c #281010",
") 	c #291110",
"! 	c #291111",
"~ 	c #2A1111",
"{ 	c #2A1010",
"] 	c #250F0F",
"^ 	c #1C1C1C",
"/ 	c #1B1B1B",
"( 	c #261010",
"_ 	c #2C1212",
": 	c #2D1212",
"< 	c #191A1A",
"[ 	c #292929",
"} 	c #2F1818",
"| 	c #2D1111",
"1 	c #2B1111",
"2 	c #2E1212",
"3 	c #2E1211",
"4 	c #2E1112",
"5 	c #230F0F",
"6 	c #301818",
"7 	c #1A1A1A",
"8 	c #191919",
"9 	c #282828",
"0 	c #2D1717",
"a 	c #230E0E",
"b 	c #291010",
"c 	c #150909",
"d 	c #200D0D",
"e 	c #181818",
"f 	c #272727",
"g 	c #2A1616",
"h 	c #1F0D0D",
"i 	c #271010",
"j 	c #130909",
"k 	c #FFFFFF",
"l 	c #090505",
"m 	c #130808",
"n 	c #171717",
"o 	c #252525",
"p 	c #030303",
"q 	c #281515",
"r 	c #1D0C0C",
"s 	c #220E0E",
"t 	c #120808",
"u 	c #040202",
"v 	c #161616",
"w 	c #242424",
"x 	c #261515",
"y 	c #1C0B0B",
"z 	c #200C0D",
"A 	c #220D0E",
"B 	c #1A0A0B",
"C 	c #080404",
"D 	c #1A0B0B",
"E 	c #220E0D",
"F 	c #271414",
"G 	c #121212",
"H 	c #020202",
"I 	c #201111",
"J 	c #160909",
"K 	c #190B0B",
"L 	c #1B0B0C",
"M 	c #0E0606",
"N 	c #0D0606",
"O 	c #211111",
"P 	c #0F0F0F",
"Q 	c #1B0F0F",
"R 	c #110707",
"S 	c #140808",
"T 	c #0B0505",
"U 	c #050303",
"V 	c #100707",
"W 	c #1A0E0E",
"X 	c #150908",
"Y 	c #1B0E0E",
"Z 	c #190E0E",
"` 	c #0F0606",
" .	c #170E0E",
"..	c #0F0707",
"+.	c #0F0607",
"@.	c #0F0706",
"#.	c #170E0D",
"$.	c #0A0505",
"%.	c #160D0D",
"&.	c #170D0D",
"*.	c #170D0E",
". . . . . . . . . . . . . . . . . . . . . ",
"+ + + + + + + + + + + + + + + + + + + + + ",
"@ @ @ + + # # # # # # # # # # # + + @ @ @ ",
"$ $ % & & & & & & & & & & & & & & & * $ $ ",
"= - ; > , ' ) ! ! ! ! ! ~ ~ { ' ] > ; - ^ ",
"/ - ; > ( ~ _ : : : : : : : : ~ ( > ; - / ",
"< [ ; } ] ' | 1 _ 2 2 3 _ 4 1 ) 5 6 ; [ 7 ",
"8 9 ; 0 a ' b ] c c d c c ] b ' a 0 ; 9 8 ",
"e f ; g h , i j k k l k k m ( ] d g ; f e ",
"n o p q r s a t k k u k k t a a r q p o n ",
"v w p x y z A B C u k u C D E d y F p w v ",
"G + H I J K L M k k u k k N D K J O H + G ",
"P / H Q R S c T k k U k k T c S R Q H / P ",
"P / H Q R m c t T T V T T t c m R Q H / P ",
"P / H W V m S X S S m m S m m m V Y H / P ",
"P / H Z ` R t t t t t t t t t R ` Z H / P ",
"P / H  .N ` ` ..` ` ....+.@...M N #.H / P ",
"P / H $.%.&.&.*.#.&.*.&.&. .&.&.%.$.H / P ",
"P P / H H H H H H H H H H H H H H H / P P ",
"P P P / / / / / / / / / / / / / / / P P P ",
"P P P P P P P P P P P P P P P P P P P P P "};
