/* XPM */
static char * closefcs_xpm[] = {
"21 21 80 1",
" 	c None",
".	c #4C4C4C",
"+	c #1F1F1F",
"@	c #1E1E1E",
"#	c #1D1D1D",
"$	c #2C2C2C",
"%	c #040404",
"&	c #2C2B2B",
"*	c #1D1C1C",
"=	c #2A2A2A",
"-	c #2C1616",
";	c #1B0B0B",
">	c #1C0B0B",
",	c #1C1C1C",
"'	c #1B1B1B",
")	c #292929",
"!	c #2A1616",
"~	c #1A0B0B",
"{	c #190B0B",
"]	c #1A0B0A",
"^	c #191A1A",
"/	c #282828",
"(	c #281515",
"_	c #190A0A",
":	c #170A0A",
"<	c #19090A",
"[	c #170909",
"}	c #180A0A",
"|	c #190A09",
"1	c #180A09",
"2	c #1A1A1A",
"3	c #191919",
"4	c #272727",
"5	c #030304",
"6	c #261313",
"7	c #160909",
"8	c #130808",
"9	c #0C0505",
"0	c #110707",
"a	c #030303",
"b	c #181818",
"c	c #262626",
"d	c #231313",
"e	c #150909",
"f	c #0B0505",
"g	c #FFFFFF",
"h	c #050303",
"i	c #140909",
"j	c #231213",
"k	c #171717",
"l	c #242424",
"m	c #221212",
"n	c #0A0505",
"o	c #030101",
"p	c #0A0404",
"q	c #120808",
"r	c #161616",
"s	c #232323",
"t	c #1F1111",
"u	c #120707",
"v	c #0E0606",
"w	c #050202",
"x	c #201111",
"y	c #121212",
"z	c #020202",
"A	c #1B0F0F",
"B	c #080404",
"C	c #020101",
"D	c #070404",
"E	c #0F0F0F",
"F	c #170D0D",
"G	c #060303",
"H	c #030202",
"I	c #160D0D",
"J	c #090404",
"K	c #150D0D",
"L	c #0A0405",
"M	c #0A0504",
"N	c #150D0C",
"O	c #140C0C",
".....................",
"+++++++++++++++++++++",
"@@@@@@@@@@@@@@@@@@@@@",
"##$%%%%%%%%%%%%%%%&##",
"*=%-;;;;;;;;>>>>>-%=,",
"')%!~~{]~~~~~~~~~!%)'",
"^/%(_:<[}__|}<:1:(%/2",
"345677789909987776a43",
"bcadeeefgghggfieejacb",
"klam888nggoggpq88malk",
"rsatuuuvwogowvuuuxasr",
"y+zAvvvBggCggDvvvAz+y",
"E'zFfffGggHggGfffFz'E",
"E'zIfffpGGJGGpfffIz'E",
"E'zIfffffffnfffffIz'E",
"E'zKnnnnnnnnnnnnnKz'E",
"E'zKnnpnppnnLMnnpNz'E",
"E'zJOOOOOOOOOOOOOJz'E",
"EE'zzzzzzzzzzzzzzz'EE",
"EEE'''''''''''''''EEE",
"EEEEEEEEEEEEEEEEEEEEE"};
