/* XPM */
static char * gripsfcs_xpm[] = {
"1 14 12 1",
" 	c None",
".	c #120707",
"+	c #110707",
"@	c #100606",
"#	c #0F0606",
"$	c #0E0606",
"%	c #0D0505",
"&	c #0C0505",
"*	c #0A0404",
"=	c #080303",
"-	c #070303",
";	c #100A0A",
".",
"+",
"@",
"#",
"$",
"%",
"&",
"*",
"=",
"=",
"=",
"-",
"-",
";"};
