/* XPM */
static char * maxfcs_xpm[] = {
"21 21 77 1",
" 	c None",
".	c #4C4C4C",
"+	c #1F1F1F",
"@	c #1E1E1E",
"#	c #1D1D1D",
"$	c #2C2C2C",
"%	c #040404",
"&	c #2C2B2B",
"*	c #1D1C1C",
"=	c #2A2A2A",
"-	c #2C1616",
";	c #1B0B0B",
">	c #1C0B0B",
",	c #1C1C1C",
"'	c #1B1B1B",
")	c #292929",
"!	c #2A1616",
"~	c #1A0B0B",
"{	c #190B0B",
"]	c #1A0B0A",
"^	c #191A1A",
"/	c #282828",
"(	c #281515",
"_	c #190A0A",
":	c #170A0A",
"<	c #19090A",
"[	c #170909",
"}	c #180A0A",
"|	c #190A09",
"1	c #180A09",
"2	c #1A1A1A",
"3	c #191919",
"4	c #272727",
"5	c #030304",
"6	c #261313",
"7	c #160909",
"8	c #130808",
"9	c #0C0505",
"0	c #0A0505",
"a	c #030303",
"b	c #181818",
"c	c #262626",
"d	c #231313",
"e	c #150909",
"f	c #0B0505",
"g	c #FFFFFF",
"h	c #140909",
"i	c #231213",
"j	c #171717",
"k	c #242424",
"l	c #221212",
"m	c #090404",
"n	c #120808",
"o	c #161616",
"p	c #232323",
"q	c #1F1111",
"r	c #120707",
"s	c #080404",
"t	c #040202",
"u	c #110707",
"v	c #201111",
"w	c #121212",
"x	c #020202",
"y	c #1B0F0F",
"z	c #0E0606",
"A	c #070303",
"B	c #060303",
"C	c #0F0F0F",
"D	c #170D0D",
"E	c #160D0D",
"F	c #0A0404",
"G	c #050303",
"H	c #150D0D",
"I	c #0A0405",
"J	c #0A0504",
"K	c #150D0C",
"L	c #140C0C",
".....................",
"+++++++++++++++++++++",
"@@@@@@@@@@@@@@@@@@@@@",
"##$%%%%%%%%%%%%%%%&##",
"*=%-;;;;;;;;>>>>>-%=,",
"')%!~~{]~~~~~~~~~!%)'",
"^/%(_:<[}__|}<:1:(%/2",
"345677789000987776a43",
"bcadeeefgggggfheeiacb",
"jkal888mgggggmn88lakj",
"opaqrrrsgtstgsurrvapo",
"w+xyzzzAgtBtgAzzzyx+w",
"C'xDfffBgggggBfffDx'C",
"C'xEfffFBGGGBFfffEx'C",
"C'xEffffff00fffffEx'C",
"C'xH0000000000000Hx'C",
"C'xH00F0FF00IJ00FKx'C",
"C'xmLLLLLLLLLLLLLmx'C",
"CC'xxxxxxxxxxxxxxx'CC",
"CCC'''''''''''''''CCC",
"CCCCCCCCCCCCCCCCCCCCC"};
