/* XPM */
static char * maxpr_xpm[] = {
"21 21 104 2",
"  	c None",
". 	c #4C4C4C",
"+ 	c #1F1F1F",
"@ 	c #1E1E1E",
"# 	c #202020",
"$ 	c #1D1D1D",
"% 	c #2D2D2D",
"& 	c #050505",
"* 	c #2D2C2C",
"= 	c #1D1C1C",
"- 	c #2A2A2A",
"; 	c #040404",
"> 	c #311919",
", 	c #240F0F",
"' 	c #281010",
") 	c #291110",
"! 	c #291111",
"~ 	c #2A1111",
"{ 	c #2A1010",
"] 	c #250F0F",
"^ 	c #1C1C1C",
"/ 	c #1B1B1B",
"( 	c #261010",
"_ 	c #2C1212",
": 	c #2D1212",
"< 	c #191A1A",
"[ 	c #292929",
"} 	c #2F1818",
"| 	c #2D1111",
"1 	c #2B1111",
"2 	c #2E1212",
"3 	c #2E1211",
"4 	c #2E1112",
"5 	c #230F0F",
"6 	c #301818",
"7 	c #1A1A1A",
"8 	c #191919",
"9 	c #282828",
"0 	c #2D1717",
"a 	c #230E0E",
"b 	c #291010",
"c 	c #150909",
"d 	c #110808",
"e 	c #181818",
"f 	c #272727",
"g 	c #2A1616",
"h 	c #1F0D0D",
"i 	c #271010",
"j 	c #130909",
"k 	c #FFFFFF",
"l 	c #130808",
"m 	c #200D0D",
"n 	c #171717",
"o 	c #252525",
"p 	c #030303",
"q 	c #281515",
"r 	c #1D0C0C",
"s 	c #220E0E",
"t 	c #100707",
"u 	c #161616",
"v 	c #242424",
"w 	c #261515",
"x 	c #1C0B0B",
"y 	c #200C0D",
"z 	c #220D0E",
"A 	c #0E0607",
"B 	c #070303",
"C 	c #0E0606",
"D 	c #070304",
"E 	c #210D0D",
"F 	c #271414",
"G 	c #121212",
"H 	c #020202",
"I 	c #201111",
"J 	c #160909",
"K 	c #190B0B",
"L 	c #1B0B0C",
"M 	c #0C0606",
"N 	c #060303",
"O 	c #0C0505",
"P 	c #1A0B0B",
"Q 	c #211111",
"R 	c #0F0F0F",
"S 	c #1B0F0F",
"T 	c #110707",
"U 	c #140808",
"V 	c #0B0505",
"W 	c #120808",
"X 	c #090404",
"Y 	c #1A0E0E",
"Z 	c #150908",
"` 	c #1B0E0E",
" .	c #190E0E",
"..	c #0F0606",
"+.	c #170E0E",
"@.	c #0D0606",
"#.	c #0F0707",
"$.	c #0F0607",
"%.	c #0F0706",
"&.	c #170E0D",
"*.	c #0A0505",
"=.	c #160D0D",
"-.	c #170D0D",
";.	c #170D0E",
". . . . . . . . . . . . . . . . . . . . . ",
"+ + + + + + + + + + + + + + + + + + + + + ",
"@ @ @ + + # # # # # # # # # # # + + @ @ @ ",
"$ $ % & & & & & & & & & & & & & & & * $ $ ",
"= - ; > , ' ) ! ! ! ! ! ~ ~ { ' ] > ; - ^ ",
"/ - ; > ( ~ _ : : : : : : : : ~ ( > ; - / ",
"< [ ; } ] ' | 1 _ 2 2 3 _ 4 1 ) 5 6 ; [ 7 ",
"8 9 ; 0 a ' b ] c d d d c ] b ' a 0 ; 9 8 ",
"e f ; g h , i j k k k k k l ( ] m g ; f e ",
"n o p q r s a t k k k k k t a a r q p o n ",
"u v p w x y z A k B C D k C E m x F p v u ",
"G + H I J K L M k N O N k M P K J Q H + G ",
"R / H S T U c V k k k k k V c U T S H / R ",
"R / H S T l c W V X X X V W c l T S H / R ",
"R / H Y t l U Z U U l l U l l l t ` H / R ",
"R / H  ...T W W W W W W W W W T .. .H / R ",
"R / H +.@.....#.....#.#.$.%.#.C @.&.H / R ",
"R / H *.=.-.-.;.&.-.;.-.-.+.-.-.=.*.H / R ",
"R R / H H H H H H H H H H H H H H H / R R ",
"R R R / / / / / / / / / / / / / / / R R R ",
"R R R R R R R R R R R R R R R R R R R R R "};
