/* XPM */
static char * menuiconpr_xpm[] = {
"21 21 103 2",
"  	c None",
". 	c #4C4C4C",
"+ 	c #1F1F1F",
"@ 	c #1E1E1E",
"# 	c #202020",
"$ 	c #1D1D1D",
"% 	c #2D2D2D",
"& 	c #050505",
"* 	c #2D2C2C",
"= 	c #1D1C1C",
"- 	c #2A2A2A",
"; 	c #040404",
"> 	c #311919",
", 	c #240F0F",
"' 	c #281010",
") 	c #291110",
"! 	c #291111",
"~ 	c #2A1111",
"{ 	c #2A1010",
"] 	c #250F0F",
"^ 	c #1C1C1C",
"/ 	c #1B1B1B",
"( 	c #261010",
"_ 	c #2C1212",
": 	c #2D1212",
"< 	c #191A1A",
"[ 	c #292929",
"} 	c #2F1818",
"| 	c #2D1111",
"1 	c #2B1111",
"2 	c #2E1112",
"3 	c #230F0F",
"4 	c #301818",
"5 	c #1A1A1A",
"6 	c #191919",
"7 	c #282828",
"8 	c #2D1717",
"9 	c #230E0E",
"0 	c #291010",
"a 	c #150909",
"b 	c #110808",
"c 	c #181818",
"d 	c #272727",
"e 	c #2A1616",
"f 	c #1F0D0D",
"g 	c #271010",
"h 	c #160A0A",
"i 	c #FFFFFF",
"j 	c #200D0D",
"k 	c #171717",
"l 	c #252525",
"m 	c #030303",
"n 	c #281515",
"o 	c #1D0C0C",
"p 	c #220E0E",
"q 	c #1C0C0C",
"r 	c #080404",
"s 	c #060303",
"t 	c #161616",
"u 	c #242424",
"v 	c #261515",
"w 	c #1C0B0B",
"x 	c #200C0D",
"y 	c #220D0E",
"z 	c #130809",
"A 	c #130808",
"B 	c #220E0D",
"C 	c #271414",
"D 	c #121212",
"E 	c #020202",
"F 	c #201111",
"G 	c #160909",
"H 	c #190B0B",
"I 	c #1B0B0C",
"J 	c #070303",
"K 	c #050303",
"L 	c #1B0B0B",
"M 	c #211111",
"N 	c #0F0F0F",
"O 	c #1B0F0F",
"P 	c #110707",
"Q 	c #140808",
"R 	c #0D0606",
"S 	c #0C0505",
"T 	c #120808",
"U 	c #0B0505",
"V 	c #090404",
"W 	c #1A0E0E",
"X 	c #100707",
"Y 	c #150908",
"Z 	c #1B0E0E",
"` 	c #190E0E",
" .	c #0F0606",
"..	c #170E0E",
"+.	c #0F0707",
"@.	c #0F0607",
"#.	c #0F0706",
"$.	c #0E0606",
"%.	c #170E0D",
"&.	c #0A0505",
"*.	c #160D0D",
"=.	c #170D0D",
"-.	c #170D0E",
". . . . . . . . . . . . . . . . . . . . . ",
"+ + + + + + + + + + + + + + + + + + + + + ",
"@ @ @ + + # # # # # # # # # # # + + @ @ @ ",
"$ $ % & & & & & & & & & & & & & & & * $ $ ",
"= - ; > , ' ) ! ! ! ! ! ~ ~ { ' ] > ; - ^ ",
"/ - ; > ( ~ _ : : : : : : : : ~ ( > ; - / ",
"< [ ; } ] ' | 1 1 | | | 1 2 1 ) 3 4 ; [ 5 ",
"6 7 ; 8 9 ' 0 ] a b b b a ] 0 ' 9 8 ; 7 6 ",
"c d ; e f , g h i i i i i h g ] j e ; d c ",
"k l m n o p 9 q r s s s r q 9 9 o n m l k ",
"t u m v w x y z i i i i i A B j w C m u t ",
"D + E F G H I a J K K K J a L H G M E + D ",
"N / E O P Q a R i i i i i S a Q P O E / N ",
"N / E O P A a T U V V V U T a A P O E / N ",
"N / E W X A Q Y Q Q A A Q A A A X Z E / N ",
"N / E `  .P T T T T T T T T T P  .` E / N ",
"N / E ..R  . .+. . .+.+.@.#.+.$.R %.E / N ",
"N / E &.*.=.=.-.%.=.-.=.=...=.=.*.&.E / N ",
"N N / E E E E E E E E E E E E E E E / N N ",
"N N N / / / / / / / / / / / / / / / N N N ",
"N N N N N N N N N N N N N N N N N N N N N "};
