/* XPM */
static char * menuiconfcs_xpm[] = {
"21 21 76 1",
" 	c None",
".	c #4C4C4C",
"+	c #1F1F1F",
"@	c #1E1E1E",
"#	c #1D1D1D",
"$	c #2C2C2C",
"%	c #040404",
"&	c #2C2B2B",
"*	c #1D1C1C",
"=	c #2A2A2A",
"-	c #2C1616",
";	c #1B0B0B",
">	c #1C0B0B",
",	c #1C1C1C",
"'	c #1B1B1B",
")	c #292929",
"!	c #2A1616",
"~	c #1A0B0B",
"{	c #190B0B",
"]	c #1A0B0A",
"^	c #191A1A",
"/	c #282828",
"(	c #281515",
"_	c #190A0A",
":	c #170A0A",
"<	c #19090A",
"[	c #170909",
"}	c #180A0A",
"|	c #180A09",
"1	c #1A1A1A",
"2	c #191919",
"3	c #272727",
"4	c #030304",
"5	c #261313",
"6	c #160909",
"7	c #130808",
"8	c #0C0505",
"9	c #0A0505",
"0	c #030303",
"a	c #181818",
"b	c #262626",
"c	c #231313",
"d	c #150909",
"e	c #0C0606",
"f	c #FFFFFF",
"g	c #231213",
"h	c #171717",
"i	c #242424",
"j	c #221212",
"k	c #0F0606",
"l	c #050202",
"m	c #040202",
"n	c #161616",
"o	c #232323",
"p	c #1F1111",
"q	c #120707",
"r	c #0B0505",
"s	c #201111",
"t	c #121212",
"u	c #020202",
"v	c #1B0F0F",
"w	c #0E0606",
"x	c #030202",
"y	c #0F0F0F",
"z	c #170D0D",
"A	c #070303",
"B	c #160D0D",
"C	c #0A0404",
"D	c #060303",
"E	c #050303",
"F	c #150D0D",
"G	c #0A0405",
"H	c #0A0504",
"I	c #150D0C",
"J	c #090404",
"K	c #140C0C",
".....................",
"+++++++++++++++++++++",
"@@@@@@@@@@@@@@@@@@@@@",
"##$%%%%%%%%%%%%%%%&##",
"*=%-;;;;;;;;>>>>>-%=,",
"')%!~~{]~~~~~~~~~!%)'",
"^/%(_:<[:}}|:<:|:(%/1",
"234566678999876665032",
"ab0cdddefffff8dddg0ba",
"hi0j777klmmmlk777j0ih",
"no0pqqqrfffffrqqqs0on",
"t+uvwwwrmxxxmrwwwvu+t",
"y'uzrrrAfffffArrrzu'y",
"y'uBrrrCDEEEDCrrrBu'y",
"y'uBrrrrrr99rrrrrBu'y",
"y'uF9999999999999Fu'y",
"y'uF99C9CC99GH99CIu'y",
"y'uJKKKKKKKKKKKKKJu'y",
"yy'uuuuuuuuuuuuuuu'yy",
"yyy'''''''''''''''yyy",
"yyyyyyyyyyyyyyyyyyyyy"};
