/* XPM */
static char * menuiconufcs_xpm[] = {
"21 21 43 1",
" 	c None",
".	c #3F3F3F",
"+	c #151515",
"@	c #141413",
"#	c #141414",
"$	c #212121",
"%	c #020203",
"&	c #030302",
"*	c #020302",
"=	c #030303",
"-	c #030202",
";	c #020303",
">	c #020202",
",	c #212020",
"'	c #131414",
")	c #131313",
"!	c #1F1F1F",
"~	c #171717",
"{	c #0C0C0C",
"]	c #121212",
"^	c #161616",
"/	c #0B0B0B",
"(	c #111212",
"_	c #1E1E1E",
":	c #0A0B0B",
"<	c #0B0A0B",
"[	c #0A0A0A",
"}	c #0B0B0A",
"|	c #111111",
"1	c #1D1D1D",
"2	c #090909",
"3	c #060606",
"4	c #050505",
"5	c #101010",
"6	c #FFFFFF",
"7	c #1B1B1B",
"8	c #070707",
"9	c #0F0F0F",
"0	c #080808",
"a	c #0D0D0D",
"b	c #010101",
"c	c #0E0E0E",
"d	c #040404",
".....................",
"+++++++++++++++++++++",
"+++++++++++++++++++++",
"@#$%&*=-&&&=%;===>,@'",
")!>~{{{{{{{{{{{{{~>!)",
"]!>^/////////////^>!]",
"(_>^/:<[[[[[[<:}:^>_]",
"|1>+[[[2344432[[[+>1|",
"51>#2223666663222)>15",
"57>)2228=>>>=8222)>75",
"97>]0004666664000]>79",
"a~b53334>>>>>43335b~a",
"/+bc444d66666d444cb+/",
"/+ba4444=====4444ab+/",
"/+ba4444444444444ab+/",
"/+ba4444444444444ab+/",
"/+ba4444444444444ab+/",
"/+b4aaaaaaaaaaaaa4b+/",
"//+bbbbbbbbbbbbbbb+//",
"///+++++++++++++++///",
"/////////////////////"};
