/* XPM */
static char * minfcs_xpm[] = {
"21 21 74 1",
" 	c None",
".	c #4C4C4C",
"+	c #1F1F1F",
"@	c #1E1E1E",
"#	c #1D1D1D",
"$	c #2C2C2C",
"%	c #040404",
"&	c #2C2B2B",
"*	c #1D1C1C",
"=	c #2A2A2A",
"-	c #2C1616",
";	c #1B0B0B",
">	c #1C0B0B",
",	c #1C1C1C",
"'	c #1B1B1B",
")	c #292929",
"!	c #2A1616",
"~	c #1A0B0B",
"{	c #190B0B",
"]	c #1A0B0A",
"^	c #191A1A",
"/	c #282828",
"(	c #281515",
"_	c #190A0A",
":	c #170A0A",
"<	c #19090A",
"[	c #170909",
"}	c #180A0A",
"|	c #190A09",
"1	c #180A09",
"2	c #1A1A1A",
"3	c #191919",
"4	c #272727",
"5	c #030304",
"6	c #261313",
"7	c #160909",
"8	c #030303",
"9	c #181818",
"0	c #262626",
"a	c #231313",
"b	c #150909",
"c	c #231213",
"d	c #171717",
"e	c #242424",
"f	c #221212",
"g	c #130808",
"h	c #161616",
"i	c #232323",
"j	c #1F1111",
"k	c #120707",
"l	c #110707",
"m	c #201111",
"n	c #121212",
"o	c #020202",
"p	c #1B0F0F",
"q	c #0E0606",
"r	c #0D0505",
"s	c #080404",
"t	c #070303",
"u	c #0F0F0F",
"v	c #170D0D",
"w	c #0B0505",
"x	c #FFFFFF",
"y	c #160D0D",
"z	c #0A0404",
"A	c #060303",
"B	c #050303",
"C	c #0A0505",
"D	c #150D0D",
"E	c #0A0405",
"F	c #0A0504",
"G	c #150D0C",
"H	c #090404",
"I	c #140C0C",
".....................",
"+++++++++++++++++++++",
"@@@@@@@@@@@@@@@@@@@@@",
"##$%%%%%%%%%%%%%%%&##",
"*=%-;;;;;;;;>>>>>-%=,",
"')%!~~{]~~~~~~~~~!%)'",
"^/%(_:<[}__|}<:1:(%/2",
"345677777777777776843",
"908abbbbbbbbbbbbbc809",
"de8fgggggggggggggf8ed",
"hi8jkkkkkkkklkkkkm8ih",
"n+opqqqrstttsrqqqpo+n",
"u'ovwwwtxxxxxtwwwvo'u",
"u'oywwwzABBBAzwwwyo'u",
"u'oywwwwwwCCwwwwwyo'u",
"u'oDCCCCCCCCCCCCCDo'u",
"u'oDCCzCzzCCEFCCzGo'u",
"u'oHIIIIIIIIIIIIIHo'u",
"uu'ooooooooooooooo'uu",
"uuu'''''''''''''''uuu",
"uuuuuuuuuuuuuuuuuuuuu"};
