/* XPM */
static char * minpr_xpm[] = {
"21 21 100 2",
"  	c None",
". 	c #4C4C4C",
"+ 	c #1F1F1F",
"@ 	c #1E1E1E",
"# 	c #202020",
"$ 	c #1D1D1D",
"% 	c #2D2D2D",
"& 	c #050505",
"* 	c #2D2C2C",
"= 	c #1D1C1C",
"- 	c #2A2A2A",
"; 	c #040404",
"> 	c #311919",
", 	c #240F0F",
"' 	c #281010",
") 	c #291110",
"! 	c #291111",
"~ 	c #2A1111",
"{ 	c #2A1010",
"] 	c #250F0F",
"^ 	c #1C1C1C",
"/ 	c #1B1B1B",
"( 	c #261010",
"_ 	c #2C1212",
": 	c #2D1212",
"< 	c #191A1A",
"[ 	c #292929",
"} 	c #2F1818",
"| 	c #2D1111",
"1 	c #2B1111",
"2 	c #2E1212",
"3 	c #2E1211",
"4 	c #2E1112",
"5 	c #230F0F",
"6 	c #301818",
"7 	c #1A1A1A",
"8 	c #191919",
"9 	c #282828",
"0 	c #2D1717",
"a 	c #230E0E",
"b 	c #291010",
"c 	c #181818",
"d 	c #272727",
"e 	c #2A1616",
"f 	c #1F0D0D",
"g 	c #271010",
"h 	c #200D0D",
"i 	c #171717",
"j 	c #252525",
"k 	c #030303",
"l 	c #281515",
"m 	c #1D0C0C",
"n 	c #220E0E",
"o 	c #161616",
"p 	c #242424",
"q 	c #261515",
"r 	c #1C0B0B",
"s 	c #200C0D",
"t 	c #220D0E",
"u 	c #220D0D",
"v 	c #210D0D",
"w 	c #220E0D",
"x 	c #271414",
"y 	c #121212",
"z 	c #020202",
"A 	c #201111",
"B 	c #160909",
"C 	c #190B0B",
"D 	c #1B0B0C",
"E 	c #180A0A",
"F 	c #0E0606",
"G 	c #0C0606",
"H 	c #1B0B0B",
"I 	c #211111",
"J 	c #0F0F0F",
"K 	c #1B0F0F",
"L 	c #110707",
"M 	c #140808",
"N 	c #150909",
"O 	c #0D0606",
"P 	c #FFFFFF",
"Q 	c #130808",
"R 	c #120808",
"S 	c #0B0505",
"T 	c #090404",
"U 	c #1A0E0E",
"V 	c #100707",
"W 	c #150908",
"X 	c #1B0E0E",
"Y 	c #190E0E",
"Z 	c #0F0606",
"` 	c #170E0E",
" .	c #0F0707",
"..	c #0F0607",
"+.	c #0F0706",
"@.	c #170E0D",
"#.	c #0A0505",
"$.	c #160D0D",
"%.	c #170D0D",
"&.	c #170D0E",
". . . . . . . . . . . . . . . . . . . . . ",
"+ + + + + + + + + + + + + + + + + + + + + ",
"@ @ @ + + # # # # # # # # # # # + + @ @ @ ",
"$ $ % & & & & & & & & & & & & & & & * $ $ ",
"= - ; > , ' ) ! ! ! ! ! ~ ~ { ' ] > ; - ^ ",
"/ - ; > ( ~ _ : : : : : : : : ~ ( > ; - / ",
"< [ ; } ] ' | 1 _ 2 2 3 _ 4 1 ) 5 6 ; [ 7 ",
"8 9 ; 0 a ' b ~ ~ ~ ~ ~ ~ ~ b ' a 0 ; 9 8 ",
"c d ; e f , g g ' g g g g ' g ] h e ; d c ",
"i j k l m n a ] , , , , , ] a a m l k j i ",
"o p k q r s t t u u u t v u w h r x k p o ",
"y + z A B C D E F G G G F E H C B I z + y ",
"J / z K L M N O P P P P P O N M L K z / J ",
"J / z K L Q N R S T T T S R N Q L K z / J ",
"J / z U V Q M W M M Q Q M Q Q Q V X z / J ",
"J / z Y Z L R R R R R R R R R L Z Y z / J ",
"J / z ` O Z Z  .Z Z  . ...+. .F O @.z / J ",
"J / z #.$.%.%.&.@.%.&.%.%.` %.%.$.#.z / J ",
"J J / z z z z z z z z z z z z z z z / J J ",
"J J J / / / / / / / / / / / / / / / J J J ",
"J J J J J J J J J J J J J J J J J J J J J "};
