/* XPM */
static char * minufcs_xpm[] = {
"21 21 42 1",
" 	c None",
".	c #3F3F3F",
"+	c #151515",
"@	c #141413",
"#	c #141414",
"$	c #212121",
"%	c #020203",
"&	c #030302",
"*	c #020302",
"=	c #030303",
"-	c #030202",
";	c #020303",
">	c #020202",
",	c #212020",
"'	c #131414",
")	c #131313",
"!	c #1F1F1F",
"~	c #171717",
"{	c #0C0C0C",
"]	c #121212",
"^	c #161616",
"/	c #0B0B0B",
"(	c #111212",
"_	c #1E1E1E",
":	c #0A0B0B",
"<	c #0B0A0B",
"[	c #0A0A0A",
"}	c #0B0B0A",
"|	c #111111",
"1	c #1D1D1D",
"2	c #101010",
"3	c #090909",
"4	c #1B1B1B",
"5	c #0F0F0F",
"6	c #080808",
"7	c #0D0D0D",
"8	c #010101",
"9	c #060606",
"0	c #040404",
"a	c #0E0E0E",
"b	c #050505",
"c	c #FFFFFF",
".....................",
"+++++++++++++++++++++",
"+++++++++++++++++++++",
"@#$%&*=-&&&=%;===>,@'",
")!>~{{{{{{{{{{{{{~>!)",
"]!>^/////////////^>!]",
"(_>^/:<[///}/<:}:^>_]",
"|1>+[[[[[[[[[[[[[+>1|",
"21>#3333333333333)>12",
"24>)3333333333333)>42",
"54>]6666666666666]>45",
"7~82999900000999928~7",
"/+8abbb0ccccc0bbba8+/",
"/+87bbbb=====bbbb78+/",
"/+87bbbbbbbbbbbbb78+/",
"/+87bbbbbbbbbbbbb78+/",
"/+87bbbbbbbbbbbbb78+/",
"/+8b7777777777777b8+/",
"//+888888888888888+//",
"///+++++++++++++++///",
"/////////////////////"};
