/* XPM */
static char * stickpr_xpm[] = {
"21 21 103 2",
"  	c None",
". 	c #4C4C4C",
"+ 	c #1F1F1F",
"@ 	c #1E1E1E",
"# 	c #202020",
"$ 	c #1D1D1D",
"% 	c #2D2D2D",
"& 	c #050505",
"* 	c #2D2C2C",
"= 	c #1D1C1C",
"- 	c #2A2A2A",
"; 	c #040404",
"> 	c #311919",
", 	c #240F0F",
"' 	c #281010",
") 	c #291110",
"! 	c #291111",
"~ 	c #2A1111",
"{ 	c #2A1010",
"] 	c #250F0F",
"^ 	c #1C1C1C",
"/ 	c #1B1B1B",
"( 	c #261010",
"_ 	c #2C1212",
": 	c #2D1212",
"< 	c #191A1A",
"[ 	c #292929",
"} 	c #2F1818",
"| 	c #2D1111",
"1 	c #2B1111",
"2 	c #2E1212",
"3 	c #2E1211",
"4 	c #2E1112",
"5 	c #230F0F",
"6 	c #301818",
"7 	c #1A1A1A",
"8 	c #191919",
"9 	c #282828",
"0 	c #2D1717",
"a 	c #230E0E",
"b 	c #291010",
"c 	c #150909",
"d 	c #110808",
"e 	c #181818",
"f 	c #272727",
"g 	c #2A1616",
"h 	c #1F0D0D",
"i 	c #271010",
"j 	c #130909",
"k 	c #FFFFFF",
"l 	c #200D0D",
"m 	c #171717",
"n 	c #252525",
"o 	c #030303",
"p 	c #281515",
"q 	c #1D0C0C",
"r 	c #220E0E",
"s 	c #100707",
"t 	c #070404",
"u 	c #0F0707",
"v 	c #161616",
"w 	c #242424",
"x 	c #261515",
"y 	c #1C0B0B",
"z 	c #200C0D",
"A 	c #220D0E",
"B 	c #0E0607",
"C 	c #0E0606",
"D 	c #210D0D",
"E 	c #271414",
"F 	c #121212",
"G 	c #020202",
"H 	c #201111",
"I 	c #160909",
"J 	c #190B0B",
"K 	c #1B0B0C",
"L 	c #0C0606",
"M 	c #060303",
"N 	c #0C0505",
"O 	c #1A0B0B",
"P 	c #211111",
"Q 	c #0F0F0F",
"R 	c #1B0F0F",
"S 	c #110707",
"T 	c #140808",
"U 	c #0B0505",
"V 	c #130808",
"W 	c #120808",
"X 	c #090404",
"Y 	c #1A0E0E",
"Z 	c #150908",
"` 	c #1B0E0E",
" .	c #190E0E",
"..	c #0F0606",
"+.	c #170E0E",
"@.	c #0D0606",
"#.	c #0F0607",
"$.	c #0F0706",
"%.	c #170E0D",
"&.	c #0A0505",
"*.	c #160D0D",
"=.	c #170D0D",
"-.	c #170D0E",
". . . . . . . . . . . . . . . . . . . . . ",
"+ + + + + + + + + + + + + + + + + + + + + ",
"@ @ @ + + # # # # # # # # # # # + + @ @ @ ",
"$ $ % & & & & & & & & & & & & & & & * $ $ ",
"= - ; > , ' ) ! ! ! ! ! ~ ~ { ' ] > ; - ^ ",
"/ - ; > ( ~ _ : : : : : : : : ~ ( > ; - / ",
"< [ ; } ] ' | 1 _ 2 2 3 _ 4 1 ) 5 6 ; [ 7 ",
"8 9 ; 0 a ' b ] c d d d c ] b ' a 0 ; 9 8 ",
"e f ; g h , i j k k k k k j ( ] l g ; f e ",
"m n o p q r a s k t u t k s a a q p o n m ",
"v w o x y z A B k C l C k C D l y E o w v ",
"F + G H I J K L k M N M k L O J I P G + F ",
"Q / G R S T c U k k k k k U c T S R G / Q ",
"Q / G R S V c W U X X X U W c V S R G / Q ",
"Q / G Y s V T Z T T V V T V V V s ` G / Q ",
"Q / G  ...S W W W W W W W W W S .. .G / Q ",
"Q / G +.@.....u ....u u #.$.u C @.%.G / Q ",
"Q / G &.*.=.=.-.%.=.-.=.=.+.=.=.*.&.G / Q ",
"Q Q / G G G G G G G G G G G G G G G / Q Q ",
"Q Q Q / / / / / / / / / / / / / / / Q Q Q ",
"Q Q Q Q Q Q Q Q Q Q Q Q Q Q Q Q Q Q Q Q Q "};
