/* XPM */
static char * stickufcs_xpm[] = {
"21 21 43 1",
" 	c None",
".	c #3F3F3F",
"+	c #151515",
"@	c #141413",
"#	c #141414",
"$	c #212121",
"%	c #020203",
"&	c #030302",
"*	c #020302",
"=	c #030303",
"-	c #030202",
";	c #020303",
">	c #020202",
",	c #212020",
"'	c #131414",
")	c #131313",
"!	c #1F1F1F",
"~	c #171717",
"{	c #0C0C0C",
"]	c #121212",
"^	c #161616",
"/	c #0B0B0B",
"(	c #111212",
"_	c #1E1E1E",
":	c #0A0B0B",
"<	c #0B0A0B",
"[	c #0A0A0A",
"}	c #0B0B0A",
"|	c #111111",
"1	c #1D1D1D",
"2	c #090909",
"3	c #060606",
"4	c #080808",
"5	c #101010",
"6	c #FFFFFF",
"7	c #040404",
"8	c #1B1B1B",
"9	c #070707",
"0	c #0F0F0F",
"a	c #050505",
"b	c #0D0D0D",
"c	c #010101",
"d	c #0E0E0E",
".....................",
"+++++++++++++++++++++",
"+++++++++++++++++++++",
"@#$%&*=-&&&=%;===>,@'",
")!>~{{{{{{{{{{{{{~>!)",
"]!>^/////////////^>!]",
"(_>^/:<[[//}[<:}:^>_]",
"|1>+[[[2343432[[[+>1|",
"51>#2223676763222)>15",
"58>)2229733379222)>85",
"08>]444a6a9a6a444]>80",
"b~c5333a=a7a=a3335c~b",
"/+cdaaa76>6>67aaadc+/",
"/+cbaaaa77777aaaabc+/",
"/+cbaaaaaaaaaaaaabc+/",
"/+cbaaaaaaaaaaaaabc+/",
"/+cbaaaaaaaaaaaaabc+/",
"/+cabbbbbbbbbbbbbac+/",
"//+ccccccccccccccc+//",
"///+++++++++++++++///",
"/////////////////////"};
