/* XPM */
static char * stickfcs_xpm[] = {
"21 21 75 1",
" 	c None",
".	c #4C4C4C",
"+	c #1F1F1F",
"@	c #1E1E1E",
"#	c #1D1D1D",
"$	c #2C2C2C",
"%	c #040404",
"&	c #2C2B2B",
"*	c #1D1C1C",
"=	c #2A2A2A",
"-	c #2C1616",
";	c #1B0B0B",
">	c #1C0B0B",
",	c #1C1C1C",
"'	c #1B1B1B",
")	c #292929",
"!	c #2A1616",
"~	c #1A0B0B",
"{	c #190B0B",
"]	c #1A0B0A",
"^	c #191A1A",
"/	c #282828",
"(	c #281515",
"_	c #190A0A",
":	c #170A0A",
"<	c #19090A",
"[	c #170909",
"}	c #190A09",
"|	c #180A09",
"1	c #1A1A1A",
"2	c #191919",
"3	c #272727",
"4	c #030304",
"5	c #261313",
"6	c #160909",
"7	c #130808",
"8	c #0D0606",
"9	c #110707",
"0	c #030303",
"a	c #181818",
"b	c #262626",
"c	c #231313",
"d	c #150909",
"e	c #0C0606",
"f	c #FFFFFF",
"g	c #070404",
"h	c #231213",
"i	c #171717",
"j	c #242424",
"k	c #221212",
"l	c #0F0606",
"m	c #070303",
"n	c #0B0505",
"o	c #161616",
"p	c #232323",
"q	c #1F1111",
"r	c #120707",
"s	c #201111",
"t	c #121212",
"u	c #020202",
"v	c #1B0F0F",
"w	c #0E0606",
"x	c #050303",
"y	c #0A0404",
"z	c #090404",
"A	c #0F0F0F",
"B	c #170D0D",
"C	c #040202",
"D	c #160D0D",
"E	c #0A0505",
"F	c #150D0D",
"G	c #0A0405",
"H	c #0A0504",
"I	c #150D0C",
"J	c #140C0C",
".....................",
"+++++++++++++++++++++",
"@@@@@@@@@@@@@@@@@@@@@",
"##$%%%%%%%%%%%%%%%&##",
"*=%-;;;;;;;;>>>>>-%=,",
"')%!~~{]~~~~~~~~~!%)'",
"^/%(_:<[:__}:<:|:(%/1",
"234566678989876665032",
"ab0cdddefgfgf8dddh0ba",
"ij0k777lm8n8ml777k0ji",
"op0qrrrnfn9nfnrrrs0po",
"t+uvwwwnxyzyxnwwwvu+t",
"A'uBnnnmfCfCfmnnnBu'A",
"A'uDnnnymzmzmynnnDu'A",
"A'uDnnnnnnEnnnnnnDu'A",
"A'uFEEEEEEEEEEEEEFu'A",
"A'uFEEyEyyEEGHEEyIu'A",
"A'uzJJJJJJJJJJJJJzu'A",
"AA'uuuuuuuuuuuuuuu'AA",
"AAA'''''''''''''''AAA",
"AAAAAAAAAAAAAAAAAAAAA"};
