/* XPM */
static char * tbarfcs_xpm[] = {
"21 21 23 1",
" 	c None",
".	c #4C4C4C",
"+	c #1F1F1F",
"@	c #1E1E1E",
"#	c #1D1D1D",
"$	c #1D1C1C",
"%	c #1C1C1C",
"&	c #1C1C1D",
"*	c #1C1D1C",
"=	c #1D1C1D",
"-	c #1D1D1C",
";	c #1B1B1B",
">	c #191A1A",
",	c #1A1A1A",
"'	c #1A1919",
")	c #1A191A",
"!	c #191919",
"~	c #1A1A19",
"{	c #181818",
"]	c #171717",
"^	c #161616",
"/	c #121212",
"(	c #0F0F0F",
".....................",
"+++++++++++++++++++++",
"@@@@@@@@@@@@@@@@@@@@@",
"#####################",
"$%%%&&*%%%%%=$$$-%&%%",
";;;;;;;;;;;;;;;;;;;;;",
">,',,>)!,,,~,)>~>,>,,",
"!!!!!!!!!!!!!!!!!!!!!",
"{{{{{{{{{{{{{{{{{{{{{",
"]]]]]]]]]]]]]]]]]]]]]",
"^^^^^^^^^^^^^^^^^^^^^",
"/////////////////////",
"(((((((((((((((((((((",
"(((((((((((((((((((((",
"(((((((((((((((((((((",
"(((((((((((((((((((((",
"(((((((((((((((((((((",
"(((((((((((((((((((((",
"(((((((((((((((((((((",
"(((((((((((((((((((((",
"((((((((((((((((((((("};
