/* XPM */
static char * tbarufcs_xpm[] = {
"21 21 20 1",
" 	c None",
".	c #3F3F3F",
"+	c #151515",
"@	c #141413",
"#	c #141414",
"$	c #131314",
"%	c #131413",
"&	c #141313",
"*	c #131414",
"=	c #131313",
"-	c #121212",
";	c #111212",
">	c #121111",
",	c #121112",
"'	c #111111",
")	c #121211",
"!	c #101010",
"~	c #0F0F0F",
"{	c #0D0D0D",
"]	c #0B0B0B",
".....................",
"+++++++++++++++++++++",
"+++++++++++++++++++++",
"@##$@%#&@@@#$*###=&@*",
"=====================",
"---------------------",
";->--;,'---)-,;);-;--",
"'''''''''''''''''''''",
"!!!!!!!!!!!!!!!!!!!!!",
"!!!!!!!!!!!!!!!!!!!!!",
"~~~~~~~~~~~~~~~~~~~~~",
"{{{{{{{{{{{{{{{{{{{{{",
"]]]]]]]]]]]]]]]]]]]]]",
"]]]]]]]]]]]]]]]]]]]]]",
"]]]]]]]]]]]]]]]]]]]]]",
"]]]]]]]]]]]]]]]]]]]]]",
"]]]]]]]]]]]]]]]]]]]]]",
"]]]]]]]]]]]]]]]]]]]]]",
"]]]]]]]]]]]]]]]]]]]]]",
"]]]]]]]]]]]]]]]]]]]]]",
"]]]]]]]]]]]]]]]]]]]]]"};
