/* XPM */
static char * unshadefcs_xpm[] = {
"21 21 75 1",
" 	c None",
".	c #4C4C4C",
"+	c #1F1F1F",
"@	c #1E1E1E",
"#	c #1D1D1D",
"$	c #2C2C2C",
"%	c #040404",
"&	c #2C2B2B",
"*	c #1D1C1C",
"=	c #2A2A2A",
"-	c #2C1616",
";	c #1B0B0B",
">	c #1C0B0B",
",	c #1C1C1C",
"'	c #1B1B1B",
")	c #292929",
"!	c #2A1616",
"~	c #1A0B0B",
"{	c #190B0B",
"]	c #1A0B0A",
"^	c #191A1A",
"/	c #282828",
"(	c #281515",
"_	c #190A0A",
":	c #170A0A",
"<	c #19090A",
"[	c #170909",
"}	c #180A0A",
"|	c #190A09",
"1	c #180A09",
"2	c #1A1A1A",
"3	c #191919",
"4	c #272727",
"5	c #030304",
"6	c #261313",
"7	c #160909",
"8	c #130808",
"9	c #0D0606",
"0	c #030303",
"a	c #181818",
"b	c #262626",
"c	c #231313",
"d	c #150909",
"e	c #120808",
"f	c #070404",
"g	c #FFFFFF",
"h	c #231213",
"i	c #171717",
"j	c #242424",
"k	c #221212",
"l	c #0B0505",
"m	c #040202",
"n	c #161616",
"o	c #232323",
"p	c #1F1111",
"q	c #120707",
"r	c #0E0606",
"s	c #060303",
"t	c #201111",
"u	c #121212",
"v	c #020202",
"w	c #1B0F0F",
"x	c #090404",
"y	c #030202",
"z	c #0F0F0F",
"A	c #170D0D",
"B	c #0A0404",
"C	c #160D0D",
"D	c #070303",
"E	c #0A0505",
"F	c #150D0D",
"G	c #0A0405",
"H	c #0A0504",
"I	c #150D0C",
"J	c #140C0C",
".....................",
"+++++++++++++++++++++",
"@@@@@@@@@@@@@@@@@@@@@",
"##$%%%%%%%%%%%%%%%&##",
"*=%-;;;;;;;;>>>>>-%=,",
"')%!~~{]~~~~~~~~~!%)'",
"^/%(_:<[}__|}<:1:(%/2",
"345677777898777776043",
"ab0cddddefgfeddddh0ba",
"ij0k8888lgmgl8888k0ji",
"no0pqqqqrsls9qqqqt0on",
"u+vwrrrrxgygxrrrrwv+u",
"z'vAllllBmgmBllllAv'z",
"z'vClllllBDBlllllCv'z",
"z'vCllllllEllllllCv'z",
"z'vFEEEEEEEEEEEEEFv'z",
"z'vFEEBEBBEEGHEEBIv'z",
"z'vxJJJJJJJJJJJJJxv'z",
"zz'vvvvvvvvvvvvvvv'zz",
"zzz'''''''''''''''zzz",
"zzzzzzzzzzzzzzzzzzzzz"};
