/* XPM */
static char * unshadeufcs_xpm[] = {
"21 21 42 1",
" 	c None",
".	c #3F3F3F",
"+	c #151515",
"@	c #141413",
"#	c #141414",
"$	c #212121",
"%	c #020203",
"&	c #030302",
"*	c #020302",
"=	c #030303",
"-	c #030202",
";	c #020303",
">	c #020202",
",	c #212020",
"'	c #131414",
")	c #131313",
"!	c #1F1F1F",
"~	c #171717",
"{	c #0C0C0C",
"]	c #121212",
"^	c #161616",
"/	c #0B0B0B",
"(	c #111212",
"_	c #1E1E1E",
":	c #0A0B0B",
"<	c #0B0A0B",
"[	c #0A0A0A",
"}	c #0B0B0A",
"|	c #111111",
"1	c #1D1D1D",
"2	c #090909",
"3	c #060606",
"4	c #101010",
"5	c #080808",
"6	c #040404",
"7	c #FFFFFF",
"8	c #1B1B1B",
"9	c #0F0F0F",
"0	c #050505",
"a	c #0D0D0D",
"b	c #010101",
"c	c #0E0E0E",
".....................",
"+++++++++++++++++++++",
"+++++++++++++++++++++",
"@#$%&*=-&&&=%;===>,@'",
")!>~{{{{{{{{{{{{{~>!)",
"]!>^/////////////^>!]",
"(_>^/:<[///}/<:}:^>_]",
"|1>+[[[[[232[[[[[+>1|",
"41>#2222567652222)>14",
"48>)222237>732222)>84",
"98>]55553=0=35555]>89",
"a~b4333367>7633334b~a",
"/+bc00000>7>00000cb+/",
"/+ba0000006000000ab+/",
"/+ba0000000000000ab+/",
"/+ba0000000000000ab+/",
"/+ba0000000000000ab+/",
"/+b0aaaaaaaaaaaaa0b+/",
"//+bbbbbbbbbbbbbbb+//",
"///+++++++++++++++///",
"/////////////////////"};
