/* XPM */
static char * unshadepr_xpm[] = {
"21 21 103 2",
"  	c None",
". 	c #4C4C4C",
"+ 	c #1F1F1F",
"@ 	c #1E1E1E",
"# 	c #202020",
"$ 	c #1D1D1D",
"% 	c #2D2D2D",
"& 	c #050505",
"* 	c #2D2C2C",
"= 	c #1D1C1C",
"- 	c #2A2A2A",
"; 	c #040404",
"> 	c #311919",
", 	c #240F0F",
"' 	c #281010",
") 	c #291110",
"! 	c #291111",
"~ 	c #2A1111",
"{ 	c #2A1010",
"] 	c #250F0F",
"^ 	c #1C1C1C",
"/ 	c #1B1B1B",
"( 	c #261010",
"_ 	c #2C1212",
": 	c #2D1212",
"< 	c #191A1A",
"[ 	c #292929",
"} 	c #2F1818",
"| 	c #2D1111",
"1 	c #2B1111",
"2 	c #2E1212",
"3 	c #2E1211",
"4 	c #2E1112",
"5 	c #230F0F",
"6 	c #301818",
"7 	c #1A1A1A",
"8 	c #191919",
"9 	c #282828",
"0 	c #2D1717",
"a 	c #230E0E",
"b 	c #291010",
"c 	c #170A0A",
"d 	c #181818",
"e 	c #272727",
"f 	c #2A1616",
"g 	c #1F0D0D",
"h 	c #271010",
"i 	c #0C0606",
"j 	c #FFFFFF",
"k 	c #220E0E",
"l 	c #200D0D",
"m 	c #171717",
"n 	c #252525",
"o 	c #030303",
"p 	c #281515",
"q 	c #1D0C0C",
"r 	c #150909",
"s 	c #060303",
"t 	c #161616",
"u 	c #242424",
"v 	c #261515",
"w 	c #1C0B0B",
"x 	c #200C0D",
"y 	c #220D0E",
"z 	c #1A0B0B",
"A 	c #0B0505",
"B 	c #130808",
"C 	c #190B0B",
"D 	c #220D0D",
"E 	c #220E0D",
"F 	c #271414",
"G 	c #121212",
"H 	c #020202",
"I 	c #201111",
"J 	c #160909",
"K 	c #1B0B0C",
"L 	c #1B0B0B",
"M 	c #100707",
"N 	c #050303",
"O 	c #211111",
"P 	c #0F0F0F",
"Q 	c #1B0F0F",
"R 	c #110707",
"S 	c #140808",
"T 	c #120808",
"U 	c #070404",
"V 	c #1A0E0E",
"W 	c #150908",
"X 	c #150808",
"Y 	c #1B0E0E",
"Z 	c #190E0E",
"` 	c #0F0606",
" .	c #170E0E",
"..	c #0D0606",
"+.	c #0F0707",
"@.	c #0F0607",
"#.	c #0F0706",
"$.	c #0E0606",
"%.	c #170E0D",
"&.	c #0A0505",
"*.	c #160D0D",
"=.	c #170D0D",
"-.	c #170D0E",
". . . . . . . . . . . . . . . . . . . . . ",
"+ + + + + + + + + + + + + + + + + + + + + ",
"@ @ @ + + # # # # # # # # # # # + + @ @ @ ",
"$ $ % & & & & & & & & & & & & & & & * $ $ ",
"= - ; > , ' ) ! ! ! ! ! ~ ~ { ' ] > ; - ^ ",
"/ - ; > ( ~ _ : : : : : : : : ~ ( > ; - / ",
"< [ ; } ] ' | 1 _ 2 2 3 _ 4 1 ) 5 6 ; [ 7 ",
"8 9 ; 0 a ' b ~ ~ ] c ] ~ ~ b ' a 0 ; 9 8 ",
"d e ; f g , h h a i j i k ' h ] l f ; e d ",
"m n o p q k a ] r j s j r ] a a q p o n m ",
"t u o v w x y y z A B A C D E l w F o u t ",
"G + H I J C K L M j N j M L L C J O H + G ",
"P / H Q R S r r T U j U T r r S R Q H / P ",
"P / H Q R B r r r R i R r r r B R Q H / P ",
"P / H V M B S W X X B B X B B B M Y H / P ",
"P / H Z ` R T T T T T T T T T R ` Z H / P ",
"P / H  ...` ` +.` ` +.+.@.#.+.$...%.H / P ",
"P / H &.*.=.=.-.%.=.-.=.=. .=.=.*.&.H / P ",
"P P / H H H H H H H H H H H H H H H / P P ",
"P P P / / / / / / / / / / / / / / / P P P ",
"P P P P P P P P P P P P P P P P P P P P P "};
